<svg width="352" height="127" fill="none" xmlns="http://www.w3.org/2000/svg"><g filter="url(#filter0_d_5_21)"><path d="M14.835 90.108V57.155L35.89 42.84l7.51 7.528-7.51-1.234v50.23l-21.055-9.255zM45.247 96.649V36.42l21.424-14.44 7.265 7.405-7.265-1.11V84.8L45.247 96.649zM76.029 79.617l-.493-64.054L97.206 1l7.265 7.528-7.264-.987v60.351L76.029 79.617zM27.394 45.554l-3.078-5.06-5.54 3.455 3.324 5.184 5.294-3.58z" fill="#0B8735"/><path d="M38.599 118L4 89.244l34.599 14.81L119 59.624 38.599 118z" fill="#0B8735"/><path d="M14.835 90.108V57.155L35.89 42.84l7.51 7.528-7.51-1.234v50.23l-21.055-9.255zM45.247 96.649V36.42l21.424-14.44 7.265 7.405-7.265-1.11V84.8L45.247 96.649zM76.029 79.617l-.493-64.054L97.206 1l7.265 7.528-7.264-.987v60.351L76.029 79.617zM27.394 45.554l-3.078-5.06-5.54 3.455 3.324 5.184 5.294-3.58z" stroke="#0B8735"/><path d="M38.599 118L4 89.244l34.599 14.81L119 59.624 38.599 118z" stroke="#0B8735"/></g><path d="M134.16 33.8V56h-6.66V33.8h6.66zm2.108 13.74c0-1.78.3-3.32.9-4.62.62-1.32 1.46-2.32 2.52-3 1.06-.7 2.25-1.05 3.57-1.05 1.1 0 2.05.23 2.85.69.8.44 1.41 1.05 1.83 1.83v-2.31h6.63V56h-6.63v-2.31c-.42.78-1.03 1.4-1.83 1.86-.8.44-1.75.66-2.85.66-1.32 0-2.51-.34-3.57-1.02-1.06-.7-1.9-1.7-2.52-3-.6-1.32-.9-2.87-.9-4.65zm11.67 0c0-.9-.23-1.6-.69-2.1-.46-.5-1.05-.75-1.77-.75s-1.31.25-1.77.75c-.46.5-.69 1.2-.69 2.1 0 .9.23 1.6.69 2.1.46.5 1.05.75 1.77.75s1.31-.25 1.77-.75c.46-.5.69-1.2.69-2.1zm21.471-8.58c1.94 0 3.45.65 4.53 1.95 1.1 1.3 1.65 3.06 1.65 5.28V56h-6.63v-8.97c0-.8-.22-1.43-.66-1.89-.42-.48-.99-.72-1.71-.72-.74 0-1.32.24-1.74.72-.42.46-.63 1.09-.63 1.89V56h-6.66V39.08h6.66v2.58c.52-.8 1.21-1.45 2.07-1.95.88-.5 1.92-.75 3.12-.75zm8.168 8.58c0-1.78.3-3.32.9-4.62.62-1.32 1.46-2.32 2.52-3 1.06-.7 2.25-1.05 3.57-1.05 1.1 0 2.04.23 2.82.69.8.44 1.41 1.05 1.83 1.83V33.8h6.66V56h-6.66v-2.31c-.42.78-1.03 1.4-1.83 1.86-.78.44-1.72.66-2.82.66-1.32 0-2.51-.34-3.57-1.02-1.06-.7-1.9-1.7-2.52-3-.6-1.32-.9-2.87-.9-4.65zm11.67 0c0-.9-.23-1.6-.69-2.1-.46-.5-1.05-.75-1.77-.75s-1.31.25-1.77.75c-.46.5-.69 1.2-.69 2.1 0 .9.23 1.6.69 2.1.46.5 1.05.75 1.77.75s1.31-.25 1.77-.75c.46-.5.69-1.2.69-2.1zm12.98-9.81c-1.16 0-2.09-.31-2.79-.93-.7-.62-1.05-1.4-1.05-2.34 0-.96.35-1.75 1.05-2.37.7-.64 1.63-.96 2.79-.96 1.14 0 2.06.32 2.76.96.7.62 1.05 1.41 1.05 2.37 0 .94-.35 1.72-1.05 2.34-.7.62-1.62.93-2.76.93zm3.3 1.35V56h-6.66V39.08h6.66zm14.858-.12c1.94 0 3.45.65 4.53 1.95 1.1 1.3 1.65 3.06 1.65 5.28V56h-6.63v-8.97c0-.8-.22-1.43-.66-1.89-.42-.48-.99-.72-1.71-.72-.74 0-1.32.24-1.74.72-.42.46-.63 1.09-.63 1.89V56h-6.66V39.08h6.66v2.58c.52-.8 1.21-1.45 2.07-1.95.88-.5 1.92-.75 3.12-.75zm8.168 8.58c0-1.78.3-3.32.9-4.62.62-1.32 1.46-2.32 2.52-3 1.06-.7 2.25-1.05 3.57-1.05 1.1 0 2.04.23 2.82.69.8.44 1.41 1.05 1.83 1.83V33.8h6.66V56h-6.66v-2.31c-.42.78-1.03 1.4-1.83 1.86-.78.44-1.72.66-2.82.66-1.32 0-2.51-.34-3.57-1.02-1.06-.7-1.9-1.7-2.52-3-.6-1.32-.9-2.87-.9-4.65zm11.67 0c0-.9-.23-1.6-.69-2.1-.46-.5-1.05-.75-1.77-.75s-1.31.25-1.77.75c-.46.5-.69 1.2-.69 2.1 0 .9.23 1.6.69 2.1.46.5 1.05.75 1.77.75s1.31-.25 1.77-.75c.46-.5.69-1.2.69-2.1zm26.001-.15c0 .46-.03.9-.09 1.32h-10.71c.1 1.46.71 2.19 1.83 2.19.72 0 1.24-.33 1.56-.99h7.05c-.24 1.2-.75 2.28-1.53 3.24-.76.94-1.73 1.69-2.91 2.25-1.16.54-2.44.81-3.84.81-1.68 0-3.18-.35-4.5-1.05-1.3-.7-2.32-1.7-3.06-3-.72-1.32-1.08-2.86-1.08-4.62 0-1.76.36-3.29 1.08-4.59.74-1.32 1.76-2.33 3.06-3.03 1.32-.7 2.82-1.05 4.5-1.05 1.68 0 3.17.35 4.47 1.05 1.32.68 2.34 1.66 3.06 2.94.74 1.28 1.11 2.79 1.11 4.53zm-6.75-1.59c0-.56-.18-.98-.54-1.26-.36-.3-.81-.45-1.35-.45-1.18 0-1.87.57-2.07 1.71h3.96zM279.43 56l-2.85-3.81-2.13 3.81h-7.32l5.67-8.91-5.97-8.01h7.44l2.85 3.84 2.16-3.84h7.32l-5.85 8.7 6.12 8.22h-7.44zm12.239.24c-1.16 0-2.09-.31-2.79-.93-.7-.62-1.05-1.4-1.05-2.34 0-.96.35-1.75 1.05-2.37.7-.64 1.63-.96 2.79-.96 1.14 0 2.06.32 2.76.96.7.62 1.05 1.41 1.05 2.37 0 .94-.35 1.72-1.05 2.34-.7.62-1.62.93-2.76.93zm9.64-18.51c-1.16 0-2.09-.31-2.79-.93-.7-.62-1.05-1.4-1.05-2.34 0-.96.35-1.75 1.05-2.37.7-.64 1.63-.96 2.79-.96 1.14 0 2.06.32 2.76.96.7.62 1.05 1.41 1.05 2.37 0 .94-.35 1.72-1.05 2.34-.7.62-1.62.93-2.76.93zm3.3 1.35V56h-6.66V39.08h6.66zm11.048 17.13c-1.7 0-3.23-.35-4.59-1.05-1.36-.7-2.43-1.7-3.21-3-.76-1.32-1.14-2.86-1.14-4.62 0-1.76.38-3.29 1.14-4.59a7.81 7.81 0 013.21-3.03c1.36-.7 2.89-1.05 4.59-1.05 1.7 0 3.23.35 4.59 1.05 1.36.7 2.42 1.71 3.18 3.03.78 1.3 1.17 2.83 1.17 4.59 0 1.76-.39 3.3-1.17 4.62a7.67 7.67 0 01-3.18 3c-1.36.7-2.89 1.05-4.59 1.05zm0-5.76c.62 0 1.14-.24 1.56-.72.42-.5.63-1.23.63-2.19s-.21-1.68-.63-2.16c-.42-.5-.94-.75-1.56-.75-.62 0-1.14.25-1.56.75-.42.48-.63 1.2-.63 2.16 0 .96.2 1.69.6 2.19.42.48.95.72 1.59.72zM216.304 70.95c1.033.233 1.85.75 2.45 1.55.616.783.925 1.683.925 2.7 0 1.5-.517 2.675-1.55 3.525-1.034.85-2.484 1.275-4.35 1.275h-8.725V62.375h8.45c1.8 0 3.208.4 4.225 1.2 1.033.8 1.55 1.925 1.55 3.375 0 1.033-.275 1.9-.825 2.6-.534.683-1.25 1.15-2.15 1.4zm-6.35-1.575h2.475c1.233 0 1.85-.508 1.85-1.525 0-1.05-.617-1.575-1.85-1.575h-2.475v3.1zm2.85 6.675c1.233 0 1.85-.517 1.85-1.55 0-.533-.167-.942-.5-1.225-.317-.283-.775-.425-1.375-.425h-2.825v3.2h2.85zm22.422-3.225c0 .383-.025.767-.075 1.15h-9.275c.05.767.259 1.342.625 1.725.384.367.867.55 1.45.55.817 0 1.4-.367 1.75-1.1h5.225a6.12 6.12 0 01-1.275 2.6c-.616.75-1.4 1.342-2.35 1.775-.95.433-2 .65-3.15.65-1.383 0-2.616-.292-3.7-.875a6.396 6.396 0 01-2.525-2.5c-.6-1.083-.9-2.358-.9-3.825s.3-2.733.9-3.8a6.228 6.228 0 012.5-2.5c1.084-.583 2.325-.875 3.725-.875 1.384 0 2.609.283 3.675.85a6.1 6.1 0 012.5 2.45c.6 1.05.9 2.292.9 3.725zm-5-1.225c0-.6-.2-1.067-.6-1.4-.4-.35-.9-.525-1.5-.525s-1.091.167-1.475.5c-.383.317-.633.792-.75 1.425h4.325zm15.281 4.225V80h-2.125c-3.584 0-5.375-1.775-5.375-5.325V70.05h-1.725v-4.075h1.725v-3.4h4.925v3.4h2.55v4.075h-2.55v4.7c0 .383.083.658.25.825.183.167.483.25.9.25h1.425zm1.447-2.85c0-1.45.258-2.717.775-3.8.533-1.083 1.25-1.917 2.15-2.5a5.565 5.565 0 013.05-.875c.967 0 1.8.192 2.5.575.7.383 1.242.9 1.625 1.55v-1.95h4.9V80h-4.9v-1.95c-.383.65-.933 1.167-1.65 1.55-.7.383-1.525.575-2.475.575a5.565 5.565 0 01-3.05-.875c-.9-.583-1.617-1.417-2.15-2.5-.517-1.1-.775-2.375-.775-3.825zm10.1 0c0-.9-.25-1.608-.75-2.125a2.364 2.364 0 00-1.8-.775c-.733 0-1.342.258-1.825.775-.483.5-.725 1.208-.725 2.125 0 .9.242 1.617.725 2.15.483.517 1.092.775 1.825.775.717 0 1.317-.258 1.8-.775.5-.517.75-1.233.75-2.15z" fill="#F3F9F0"/><defs><filter id="filter0_d_5_21" x=".68" y=".351" width="123.613" height="126.282" filterUnits="userSpaceOnUse" color-interpolation-filters="sRGB"><feFlood flood-opacity="0" result="BackgroundImageFix"/><feColorMatrix in="SourceAlpha" values="0 0 0 0 0 0 0 0 0 0 0 0 0 0 0 0 0 0 127 0" result="hardAlpha"/><feOffset dx="1" dy="4"/><feGaussianBlur stdDeviation="2"/><feComposite in2="hardAlpha" operator="out"/><feColorMatrix values="0 0 0 0 0 0 0 0 0 0 0 0 0 0 0 0 0 0 0.25 0"/><feBlend in2="BackgroundImageFix" result="effect1_dropShadow_5_21"/><feBlend in="SourceGraphic" in2="effect1_dropShadow_5_21" result="shape"/></filter></defs></svg>