<svg width="125" height="127" fill="none" xmlns="http://www.w3.org/2000/svg"><g filter="url(#filter0_d_1_19)"><path d="M14.835 90.108V57.155L35.89 42.84l7.51 7.528-7.51-1.234v50.23l-21.055-9.255zM45.247 96.649V36.42l21.424-14.44 7.265 7.405-7.265-1.11V84.8L45.247 96.649zM76.029 79.617l-.493-64.054L97.206 1l7.265 7.528-7.264-.987v60.351L76.029 79.617zM27.394 45.554l-3.078-5.06-5.54 3.455 3.324 5.184 5.294-3.58z" fill="#0B8735"/><path d="M38.599 118L4 89.244l34.599 14.81L119 59.624 38.599 118z" fill="#0B8735"/><path d="M14.835 90.108V57.155L35.89 42.84l7.51 7.528-7.51-1.234v50.23l-21.055-9.255zM45.247 96.649V36.42l21.424-14.44 7.265 7.405-7.265-1.11V84.8L45.247 96.649zM76.029 79.617l-.493-64.054L97.206 1l7.265 7.528-7.264-.987v60.351L76.029 79.617zM27.394 45.554l-3.078-5.06-5.54 3.455 3.324 5.184 5.294-3.58z" stroke="#0B8735"/><path d="M38.599 118L4 89.244l34.599 14.81L119 59.624 38.599 118z" stroke="#0B8735"/></g><defs><filter id="filter0_d_1_19" x=".68" y=".351" width="123.613" height="126.282" filterUnits="userSpaceOnUse" color-interpolation-filters="sRGB"><feFlood flood-opacity="0" result="BackgroundImageFix"/><feColorMatrix in="SourceAlpha" values="0 0 0 0 0 0 0 0 0 0 0 0 0 0 0 0 0 0 127 0" result="hardAlpha"/><feOffset dx="1" dy="4"/><feGaussianBlur stdDeviation="2"/><feComposite in2="hardAlpha" operator="out"/><feColorMatrix values="0 0 0 0 0 0 0 0 0 0 0 0 0 0 0 0 0 0 0.25 0"/><feBlend in2="BackgroundImageFix" result="effect1_dropShadow_1_19"/><feBlend in="SourceGraphic" in2="effect1_dropShadow_1_19" result="shape"/></filter></defs></svg>