<svg xmlns="http://www.w3.org/2000/svg" viewBox="0 0 57 40" fill="none"><path d="M52.876 33.593v-2.42c0-.45-.757-.88-2.116-1.266l.032-3.014a22.5 22.5 0 00-4.125-12.975 22.825 22.825 0 00-10.887-8.29l-.097-.604a1.721 1.721 0 00-.408-.872 1.747 1.747 0 00-.815-.521 23.148 23.148 0 00-12.925 0 1.742 1.742 0 00-1.227 1.392l-.094.563A22.83 22.83 0 009.252 13.87a22.497 22.497 0 00-4.159 13.022v3.027c-1.34.385-2.086.81-2.086 1.256v2.421a.59.59 0 00.087.408 5.852 5.852 0 012.246-1.015c2.073-.5 4.18-.85 6.303-1.046A4.25 4.25 0 0114.951 33a8.95 8.95 0 006.008 2.313h13.964a8.943 8.943 0 006.009-2.314 4.253 4.253 0 013.308-1.069c2.123.195 4.229.543 6.301 1.042a5.26 5.26 0 012.13.924c.036.035.078.066.109.1a.6.6 0 00.096-.403z" fill="#FFF100"/><path d="M14.984 28.498a53.357 53.357 0 01-.03-1.673c.007-8.416 1.991-15.964 5.262-21.235a22.83 22.83 0 00-10.962 8.282 22.498 22.498 0 00-4.16 13.02v3.027a55.92 55.92 0 019.89-1.42z" fill="url(#paint0_linear_3989_55385)"/><path d="M50.79 26.892a22.425 22.425 0 00-5.215-14.395 46.55 46.55 0 012.162 14.324c0 .82-.022 1.631-.06 2.435 1.036.16 2.063.376 3.075.649l.038-3.013z" fill="url(#paint1_linear_3989_55385)"/><path d="M50.541 32.98a44.21 44.21 0 00-6.303-1.046 4.25 4.25 0 00-3.307 1.063 8.943 8.943 0 01-6.009 2.313H20.964a8.948 8.948 0 01-6.006-2.312 4.25 4.25 0 00-3.308-1.071 44.2 44.2 0 00-6.303 1.045A5.929 5.929 0 003.1 33.987c1.059 1.607 11.781 3.294 24.846 3.294 13.064 0 23.781-1.692 24.844-3.293-.037-.033-.079-.064-.11-.099a5.462 5.462 0 00-2.14-.908z" fill="url(#paint2_radial_3989_55385)"/><path d="M27.94 9.818l-5.346 9.023 5.345 3.288V9.819z" fill="#0A0A0A"/><path d="M27.941 9.822v12.305l5.346-3.284-5.346-9.021zm0 14.093v4.29c.1-.142 5.346-7.58 5.346-7.583l-5.346 3.293z" fill="#4B4D4D"/><path d="M27.941 23.916l-5.345-3.288 5.345 7.58v-4.294.002z" fill="#0A0A0A"/><defs><linearGradient id="paint0_linear_3989_55385" x1="12.655" y1="29.919" x2="12.655" y2="5.59" gradientUnits="userSpaceOnUse"><stop stop-color="#EDCF00"/><stop offset=".33" stop-color="#F0D500"/><stop offset=".77" stop-color="#F9E500"/><stop offset="1" stop-color="#FFF100"/></linearGradient><linearGradient id="paint1_linear_3989_55385" x1="48.182" y1="30.096" x2="48.182" y2="12.497" gradientUnits="userSpaceOnUse"><stop stop-color="#EDCF00"/><stop offset=".59" stop-color="#F7E100"/><stop offset="1" stop-color="#FFF100"/></linearGradient><radialGradient id="paint2_radial_3989_55385" cx="0" cy="0" r="1" gradientUnits="userSpaceOnUse" gradientTransform="matrix(18.5398 0 0 18.4136 5.795 46.539)"><stop stop-color="#FFF100"/><stop offset=".23" stop-color="#F9E500"/><stop offset=".67" stop-color="#F0D500"/><stop offset="1" stop-color="#EDCF00"/></radialGradient></defs></svg>