<?xml version="1.0" standalone="no"?>
<!DOCTYPE svg PUBLIC "-//W3C//DTD SVG 20010904//EN"
 "http://www.w3.org/TR/2001/REC-SVG-20010904/DTD/svg10.dtd">
<svg version="1.0" xmlns="http://www.w3.org/2000/svg"
 width="485.000000pt" height="291.000000pt" viewBox="0 0 485.000000 291.000000"
 preserveAspectRatio="xMidYMid meet">

<g transform="translate(0.000000,291.000000) scale(0.100000,-0.100000)"
fill="#000000" stroke="none">
<path d="M40 2560 l0 -350 345 0 345 0 0 -365 0 -365 333 -2 332 -3 3 -362 2
-363 340 0 340 0 0 720 0 720 -337 2 -338 3 -3 358 -2 357 -680 0 -680 0 0
-350z"/>
<path d="M3498 2553 l-3 -358 -337 -3 -338 -2 0 -720 0 -720 340 0 340 0 2
363 3 362 333 3 332 2 0 365 0 365 340 0 340 0 0 350 0 350 -675 0 -675 0 -2
-357z"/>
<path d="M680 370 l0 -360 350 0 350 0 0 360 0 360 -350 0 -350 0 0 -360z"/>
<path d="M2100 370 l0 -360 350 0 350 0 0 360 0 360 -350 0 -350 0 0 -360z"/>
<path d="M3520 370 l0 -360 350 0 350 0 0 360 0 360 -350 0 -350 0 0 -360z"/>
</g>
</svg>
