<?xml version="1.0" standalone="no"?>
<!DOCTYPE svg PUBLIC "-//W3C//DTD SVG 20010904//EN"
 "http://www.w3.org/TR/2001/REC-SVG-20010904/DTD/svg10.dtd">
<svg version="1.0" xmlns="http://www.w3.org/2000/svg"
 width="493.000000pt" height="306.000000pt" viewBox="0 0 493.000000 306.000000"
 preserveAspectRatio="xMidYMid meet">

<g transform="translate(0.000000,306.000000) scale(0.100000,-0.100000)"
fill="#000000" stroke="none">
<path d="M3704 2540 c-38 -10 -88 -26 -110 -35 -21 -10 -109 -26 -195 -36
-191 -22 -330 -50 -451 -90 -126 -41 -417 -186 -621 -308 l-168 -101 -90 82
c-300 275 -538 376 -818 348 -198 -21 -359 -90 -476 -208 -110 -109 -165 -244
-165 -402 0 -285 190 -525 477 -601 110 -29 277 -30 395 -1 151 37 333 116
531 229 43 25 79 44 81 42 1 -2 66 -75 144 -161 78 -86 142 -159 142 -161 0
-8 -167 -130 -285 -208 -133 -88 -264 -156 -365 -189 -67 -22 -91 -25 -235
-25 -131 1 -175 5 -242 23 -161 42 -290 104 -415 199 -31 24 -60 43 -64 43
-14 0 -114 -81 -114 -92 0 -6 25 -42 56 -80 200 -244 561 -408 899 -408 251 0
542 121 912 381 l125 87 82 -70 c233 -202 445 -298 655 -298 310 0 559 128
664 341 46 94 59 152 59 260 1 160 -52 282 -176 405 -61 60 -100 90 -156 117
-178 87 -364 98 -560 35 -117 -37 -314 -143 -457 -244 -34 -24 -63 -44 -65
-44 -5 0 -252 289 -256 299 -4 11 243 155 393 231 225 113 383 156 666 181
239 21 303 4 442 -120 116 -104 238 -154 330 -137 l38 7 -59 43 c-76 57 -172
175 -172 213 0 33 137 73 258 75 96 2 104 -6 100 -98 -4 -87 -3 -87 100 19 68
71 72 77 72 121 0 26 -7 60 -15 75 -21 41 -94 102 -167 141 -35 18 -75 44 -89
57 -19 18 -49 28 -110 38 -46 8 -113 21 -149 30 -94 21 -287 19 -376 -5z m514
-175 c34 -14 40 -20 31 -31 -21 -26 -84 -38 -119 -24 -28 11 -70 57 -70 75 0
13 112 -2 158 -20z m-2707 -397 c99 -47 297 -196 286 -215 -11 -17 -250 -132
-332 -158 -154 -52 -285 -42 -376 28 -113 86 -114 245 -2 319 72 48 156 67
269 64 69 -2 91 -7 155 -38z m2075 -643 c186 -55 241 -288 93 -395 -69 -50
-130 -65 -259 -65 -109 0 -119 2 -182 32 -71 33 -163 96 -237 160 l-44 39 99
66 c202 135 299 177 410 177 39 1 93 -6 120 -14z"/>
<path d="M4407 1812 c-38 -116 -41 -137 -22 -156 19 -18 67 -21 96 -6 12 7 19
21 19 40 0 33 -46 187 -59 194 -5 3 -20 -29 -34 -72z"/>
<path d="M440 1329 c0 -3 19 -53 43 -110 24 -57 46 -112 50 -122 6 -16 10 -15
47 9 22 15 40 29 40 33 -1 8 -180 198 -180 190z"/>
<path d="M602 1079 c-47 -34 -46 -33 -32 -60 11 -19 13 -18 55 11 55 38 59 44
37 64 -17 15 -21 14 -60 -15z"/>
<path d="M658 1013 c-52 -38 -54 -41 -35 -66 11 -16 16 -14 62 18 59 42 61 47
38 67 -17 14 -22 12 -65 -19z"/>
</g>
</svg>
